/* XPM */
static char * bg_panel2_xpm[] = {
"60 14 167 2",
"  	c None",
". 	c #000000",
"+ 	c #0F0E0A",
"@ 	c #100F0C",
"# 	c #10100C",
"$ 	c #0D0D09",
"% 	c #0D0C09",
"& 	c #0C0C09",
"* 	c #0A0A07",
"= 	c #090906",
"- 	c #070704",
"; 	c #0A0A06",
"> 	c #040403",
", 	c #040402",
"' 	c #050503",
") 	c #060604",
"! 	c #070705",
"~ 	c #090907",
"{ 	c #080806",
"] 	c #060605",
"^ 	c #090806",
"/ 	c #070604",
"( 	c #050504",
"_ 	c #060603",
": 	c #060504",
"< 	c #040303",
"[ 	c #050403",
"} 	c #060503",
"| 	c #0A0907",
"1 	c #050402",
"2 	c #080805",
"3 	c #0B0B08",
"4 	c #0F0F0B",
"5 	c #11110C",
"6 	c #11100C",
"7 	c #0C0C08",
"8 	c #0D0D0A",
"9 	c #10100B",
"0 	c #0E0E0A",
"a 	c #0E0D0A",
"b 	c #0B0B07",
"c 	c #0C0B08",
"d 	c #0B0A07",
"e 	c #13130D",
"f 	c #161610",
"g 	c #181811",
"h 	c #171611",
"i 	c #161611",
"j 	c #14130E",
"k 	c #100F0B",
"l 	c #12120D",
"m 	c #14140E",
"n 	c #15140F",
"o 	c #14140F",
"p 	c #15150F",
"q 	c #13130E",
"r 	c #12120E",
"s 	c #16150F",
"t 	c #171610",
"u 	c #181711",
"v 	c #1C1B14",
"w 	c #1B1A14",
"x 	c #1D1C15",
"y 	c #171711",
"z 	c #0A0A08",
"A 	c #302F23",
"B 	c #3F3E2E",
"C 	c #3D3D2E",
"D 	c #3E3D2E",
"E 	c #3D3D2D",
"F 	c #3D3C2C",
"G 	c #3C3B2C",
"H 	c #3A3A2C",
"I 	c #39392A",
"J 	c #383729",
"K 	c #373629",
"L 	c #343427",
"M 	c #323225",
"N 	c #313024",
"O 	c #303024",
"P 	c #333325",
"Q 	c #2F2E22",
"R 	c #2C2C21",
"S 	c #2E2D22",
"T 	c #2B2A1F",
"U 	c #2D2C21",
"V 	c #2B2B1F",
"W 	c #29281E",
"X 	c #24231A",
"Y 	c #222119",
"Z 	c #1F1F17",
"` 	c #25251C",
" .	c #455B55",
"..	c #3777A1",
"+.	c #3578A6",
"@.	c #3577A5",
"#.	c #3577A4",
"$.	c #3477A4",
"%.	c #3476A4",
"&.	c #3376A4",
"*.	c #3274A4",
"=.	c #3274A3",
"-.	c #3274A2",
";.	c #3173A2",
">.	c #3073A2",
",.	c #3072A1",
"'.	c #2E71A1",
").	c #396B83",
"!.	c #41676C",
"~.	c #38361B",
"{.	c #191913",
"].	c #12120C",
"^.	c #171710",
"/.	c #3F3F34",
"(.	c #403F31",
"_.	c #414031",
":.	c #3F3E30",
"<.	c #434233",
"[.	c #454437",
"}.	c #484739",
"|.	c #484738",
"1.	c #454537",
"2.	c #4A493C",
"3.	c #464538",
"4.	c #444334",
"5.	c #464537",
"6.	c #494839",
"7.	c #464536",
"8.	c #434234",
"9.	c #454435",
"0.	c #454436",
"a.	c #4C4B3D",
"b.	c #4B4A3C",
"c.	c #424132",
"d.	c #474637",
"e.	c #474638",
"f.	c #49483A",
"g.	c #4F4E3F",
"h.	c #444336",
"i.	c #2F2F24",
"j.	c #1A1A13",
"k.	c #151510",
"l.	c #080705",
"m.	c #0E0E0B",
"n.	c #181812",
"o.	c #191812",
"p.	c #27261B",
"q.	c #232319",
"r.	c #2D2D21",
"s.	c #27271D",
"t.	c #28271C",
"u.	c #29291E",
"v.	c #212118",
"w.	c #25241B",
"x.	c #201F17",
"y.	c #1F1E16",
"z.	c #201F18",
"A.	c #1E1D16",
"B.	c #1C1C14",
"C.	c #25241D",
"D.	c #23231C",
"E.	c #1A1913",
"F.	c #12110D",
"G.	c #11100B",
"H.	c #0D0C08",
"I.	c #0B0A08",
"J.	c #070706",
". . . . . . . . . . . . . . . . . . . . . . . . . . . . . . . . . . . . . . . . . . + @ # $ % % & & & & * = = - . . ; * ",
". . . . . . . . . . . . . . . . . . . . . . . . . . . . . . . . . . . . . . . . . . . . . . . . . . . . . . . . . . . . ",
". . . . . . . . . . . . . . . . . . . . . . . . . . . . . . . . . . . . . . . . . . > > > , > ' ) ! ~ * . . . . . . . . ",
". . . . . - ' ' ' ) { = = = ! ) ) ) ] ! { ^ = - / ) ! ! ) ) ) ( ) ) _ _ ) ) - : ) ' > < > > [ } ' ' > ' ( ! | . . . . . ",
". . . ( , ' 1 ) 2 3 4 5 6 # 4 & & 7 $ 8 9 # 9 0 0 0 0 0 8 $ 7 7 & & & & & 7 8 a 7 b 3 c d = * 3 3 = { ) ( ' ( . . . . . ",
". . . ' > ) * $ 9 e f g h i j 5 # # 9 k 9 l m n n o p p o m q r q l e l l 5 s j 5 5 m t u v w x y m 4 $ 7 z * - . . . . ",
". . . 8 3 4 y A B C D D E E F G H H H I J K L M N O P P N Q A A A R S S R T U U V W T T W X Y Y Y Z Z y 9 3 ~ / { . . . ",
". . . 0 # g `  ...+.+.+.@.@.@.@.@.#.@.$.%.%.&.&.&.*.*.&.=.-.=.=.=.;.-.-.;.;.;.;.;.;.;.;.>.,.'.'.'.).!.~.{.& { ) ] . . . ",
". . . . 3 ].^./.(._.:.<.[.}.|.1.2.3.4.5.6.}.7.8.<.9.[.0.[.}.a.b.[.0.c.d.7.}.e.[.3.f.g.3.<.0.h.9.D D i.j.k.n 7 l.. . . . ",
". . . . 3 0 m.m f n.n.n.{.o.Y p.q.r.s.t.u.W W W X X v.w.x.y.x.x.v.z.A.B.u C.D.Z x o.E.k + + & 7 l $ r * 3 c 2 . . . . . ",
". . . . . . . . . . F.q l e G.+ $ & 7 7 7 H.$ 0 4 + & 0 0 0 0 + + 0 8 $ = 2 3 7 c I.* . . . . . . . . . . . . . . . . . ",
". . . . . . . . . . . . . . . . . { { J.J.! ! ! 2 ! ] { = . . . . . . . . . . . . . . . . . . . . . . . . . . . = . . . ",
". . . . . . . . . . . . . . . . . . . . . . . . . . . . . . . . . . . . . . . . . . . . . . . . . . = . . . . . . . . . ",
". . . . . . . . . . . . . . . . . . . . . . . . . . . . . . . . . . . . . . . . . . . . . . . . . . . . . . . . . . . . "};
