/* XPM */
static char * eject_xpm[] = {
"12 9 12 1",
" 	c None",
".	c #000000",
"+	c #607799",
"@	c #92B5E8",
"#	c #8EB1E3",
"$	c #8BADDE",
"%	c #87A8D8",
"&	c #84A4D2",
"*	c #81A0CD",
"=	c #7D9CC7",
"-	c #7A97C2",
";	c #7693BC",
"............",
".....+......",
"....+@+.....",
"...+@#$+....",
"..+@#$%&+...",
"..@#$%&*=...",
"............",
"..$%&*=-;...",
"............"};
