/* XPM */
static char * prev_xpm[] = {
"12 9 33 1",
" 	c None",
".	c #000000",
"+	c #9FC7FF",
"@	c #88A9D8",
"#	c #9DC3FA",
"$	c #8CAEDE",
"%	c #88A9D9",
"&	c #85A5D4",
"*	c #9ABFF5",
"=	c #8FB2E5",
"-	c #8CAEDF",
";	c #89AADA",
">	c #85A6D4",
",	c #82A1CF",
"'	c #97BBF0",
")	c #93B7EB",
"!	c #90B3E5",
"~	c #8CAFE0",
"{	c #86A6D5",
"]	c #82A2CF",
"^	c #7F9ECA",
"/	c #94B8EB",
"(	c #89ABDB",
"_	c #86A7D6",
":	c #83A2D0",
"<	c #7F9ECB",
"[	c #7C9AC5",
"}	c #91B4E7",
"|	c #809FCB",
"1	c #7C9AC6",
"2	c #7996C0",
"3	c #8EB0E2",
"4	c #7692BC",
"............",
".+......@...",
".#....$%&...",
".*..=-;>,...",
".')!~;{]^...",
"./..(_:<[...",
".}....|12...",
".3......4...",
"............"};
