/* XPM */
static char * prev_clicked_xpm[] = {
"12 9 3 1",
" 	c None",
".	c #000000",
"+	c #7399BD",
"............",
"..+......+..",
"..+....+++..",
"..+..+++++..",
"..++++++++..",
"..+..+++++..",
"..+....+++..",
"..+......+..",
"............"};
