/* XPM */
static char * stop_xpm[] = {
"12 9 44 1",
" 	c None",
".	c #000000",
"+	c #9FC7FF",
"@	c #9CC2F9",
"#	c #99BEF4",
"$	c #95BAEE",
"%	c #92B6E9",
"&	c #8FB1E3",
"*	c #9CC2F8",
"=	c #98BDF3",
"-	c #95B9ED",
";	c #91B5E8",
">	c #8EB1E2",
",	c #8BACDD",
"'	c #98BDF2",
")	c #94B8EC",
"!	c #91B4E7",
"~	c #8DB0E2",
"{	c #8AACDC",
"]	c #87A7D7",
"^	c #94B8EB",
"/	c #90B3E6",
"(	c #8DAFE1",
"_	c #89ABDB",
":	c #86A7D6",
"<	c #83A2D0",
"[	c #90B3E5",
"}	c #8CAFE0",
"|	c #89AADA",
"1	c #86A6D5",
"2	c #82A2CF",
"3	c #7F9ECA",
"4	c #8CAEDF",
"5	c #88AAD9",
"6	c #85A5D4",
"7	c #82A1CE",
"8	c #7E9DC9",
"9	c #7B99C4",
"0	c #88A9D8",
"a	c #84A5D3",
"b	c #81A0CE",
"c	c #7E9CC8",
"d	c #7A98C3",
"e	c #7794BD",
"............",
"...+@#$%&...",
"...*=-;>,...",
"...')!~{]...",
"...^/(_:<...",
"...[}|123...",
"...456789...",
"...0abcde...",
"............"};
