/* XPM */
static char * stop_xpm[] = {
"11 15 9 1",
" 	c None",
".	c #4A5052",
"+	c #BDC6D5",
"@	c #9CB2CD",
"#	c #606E7F",
"$	c #3D4550",
"%	c #3A424C",
"&	c #000000",
"*	c #738D94",
"...........",
"+++++++++++",
"@@@@@@@@@@@",
"@#$$$$$$$#@",
"@%&&&&&&&%@",
"@%&&&&&&&%@",
"@%&&&&&&&%@",
"@%&&&&&&&%@",
"@%&&&&&&&%@",
"@%&&&&&&&%@",
"@%&&&&&&&%@",
"@#$$$$$$$#@",
"@@@@@@@@@@@",
"***********",
"..........."};
