/* XPM */
static char * eject_clicked_xpm[] = {
"13 15 24 1",
" 	c None",
".	c #4A5052",
"+	c #738D94",
"@	c #9CB2CD",
"#	c #BDC6D5",
"$	c #9CB1CC",
"%	c #9BB1CC",
"&	c #6E7E91",
"*	c #69788A",
"=	c #040405",
"-	c #9BB2CC",
";	c #9CB1CD",
">	c #020303",
",	c #000000",
"'	c #647284",
")	c #9CB2CC",
"!	c #5E6B7B",
"~	c #647283",
"{	c #0D0F11",
"]	c #0B0D0F",
"^	c #7A8BA0",
"/	c #6D7D90",
"(	c #47515E",
"_	c #282E35",
".............",
"++++++++++++.",
"+@@@@@@@@@@#.",
"+@@@@@@@@@@#.",
"+@$%@&&%%%%#.",
"+@@@*==*%-%#.",
"+;;@>,,>'%%#.",
"+)!>,,,,>!%#.",
"+~{]]]]]]{~#.",
"+^////////^#.",
"+(________(#.",
"+@@@@@@@@@@#.",
"+@@@@@@@@@@#.",
"############.",
"............."};
