/* XPM */
static char * eject_xpm[] = {
"14 15 25 1",
" 	c None",
".	c #4A5052",
"+	c #BDC6D5",
"@	c #738D94",
"#	c #9CB2CD",
"$	c #9BB1CC",
"%	c #9CB1CC",
"&	c #6E7E91",
"*	c #9BB2CD",
"=	c #9CB2CC",
"-	c #69788A",
";	c #040405",
">	c #9BB2CC",
",	c #9CB1CD",
"'	c #647284",
")	c #020303",
"!	c #000000",
"~	c #5E6B7B",
"{	c #647283",
"]	c #0D0F11",
"^	c #0B0D0F",
"/	c #7A8BA0",
"(	c #6D7D90",
"_	c #47515E",
":	c #282E35",
"..............",
"++++++++++++@.",
"############@.",
"############@.",
"##$%$#&&$$$$@.",
"###*=-;;-$>$@.",
"##,,')!!)'$$@.",
"##=~)!!!!)~$@.",
"##{]^^^^^^]{@.",
"##/((((((((/@.",
"##_::::::::_@.",
"############@.",
"############@.",
"@@@@@@@@@@@@@.",
".............."};
