/* XPM */
static char * next_clicked_xpm[] = {
"14 15 26 1",
" 	c None",
".	c #4A5052",
"+	c #738D94",
"@	c #9CB2CD",
"#	c #BDC6D5",
"$	c #616F80",
"%	c #728296",
"&	c #9BB1CC",
"*	c #9BB2CD",
"=	c #434C58",
"-	c #3C444F",
";	c #010102",
">	c #2C333A",
",	c #77889D",
"'	c #9AB0CA",
")	c #9CB1CC",
"!	c #0A0B0D",
"~	c #000000",
"{	c #282D34",
"]	c #798A9F",
"^	c #030405",
"/	c #2D343C",
"(	c #78899E",
"_	c #586574",
":	c #9CB1CD",
"<	c #9CB2CC",
"..............",
"++++++++++++++",
"+@@@@@@@@@@@@#",
"+$%&&&&&*&&=$#",
"+-;>,')@*&&!-#",
"+-~~~{]**&&!-#",
"+-~~~~^/('&!-#",
"+-~~~~~~~_&!-#",
"+-~~~~^/('&!-#",
"+-~~~{]**&&!-#",
"+-;>,'@:*&&!-#",
"+$%&&:<<@&&=$#",
"+@@@@@@@@@@@@#",
"+#############",
".............."};
