/* XPM */
static char * prev_xpm[] = {
"16 15 30 1",
" 	c None",
".	c #4A5052",
"+	c #BDC6D5",
"@	c #9CB2CD",
"#	c #637082",
"$	c #3D4550",
"%	c #9CB1CD",
"&	c #6D7D90",
"*	c #3E4751",
"=	c #000000",
"-	c #9BB0CB",
";	c #9BB1CC",
">	c #99AEC9",
",	c #6F7F92",
"'	c #262B32",
")	c #9BB0CC",
"!	c #667486",
"~	c #1F2429",
"{	c #3E4752",
"]	c #96ABC5",
"^	c #69788B",
"/	c #20252A",
"(	c #8EA3BB",
"_	c #374049",
":	c #9BB2CC",
"<	c #677587",
"[	c #708093",
"}	c #272C33",
"|	c #9CB2CC",
"1	c #738D94",
"................",
".+++++++++++++++",
".+@@@@@@@@@@@@@@",
".+@#$%@%@%@%@&#@",
".+@*=-;;;;>,'=*@",
".+@*=);;;!~===*@",
".+@{=;]^/====={@",
".+@*=(_=======*@",
".+@{=;]^/====={@",
".+@*=:;:;<~===*@",
".+@*=%%%%%>[}=*@",
".+@#$%|%|%|%|&#@",
".+@@@@@@@@@@@@@@",
".111111111111111",
"................"};
