/* XPM */
static char *magick[] = {
/* columns rows colors chars-per-pixel */
"12 8 29 1",
"  c Gray8",
". c #222323",
"X c #353535",
"o c #3d3f3f",
"O c #4c4f4f",
"+ c #4a614d",
"@ c #4b6250",
"# c #597569",
"$ c #015c9c",
"% c #0269b1",
"& c #0277c9",
"* c #0279cd",
"= c #0286e3",
"- c #0395fc",
"; c #0998fc",
": c #1da0fc",
"> c #39acfc",
", c #688880",
"< c #6a8b83",
"1 c #779c96",
"2 c #47b2fc",
"3 c #55b7fc",
"4 c #6ec2fd",
"5 c #88b1ac",
"6 c #8db8b4",
"7 c #98c7c4",
"8 c #a9dddb",
"9 c #b3e9e7",
"0 c #baf2f1",
/* pixels */
".XOOOOOOOOX.",
".XOOOOOOOOX.",
"+#,1578096,@",
"+#,1578096,@",
" .oooooooo. ",
" .oooooooo. ",
"$*;243>:-=&%",
"$*;243>:-=&%"
};
